<?xml version="1.0" standalone="no"?>
<!DOCTYPE svg PUBLIC "-//W3C//DTD SVG 20010904//EN"
 "http://www.w3.org/TR/2001/REC-SVG-20010904/DTD/svg10.dtd">
<svg version="1.0" xmlns="http://www.w3.org/2000/svg"
 width="370.000000pt" height="339.000000pt" viewBox="0 0 370.000000 339.000000"
 preserveAspectRatio="xMidYMid meet">

<g transform="translate(0.000000,339.000000) scale(0.100000,-0.100000)"
fill="#000000" stroke="none">
<path d="M1433 3260 c-412 -33 -689 -149 -911 -384 -186 -196 -284 -419 -327
-736 -35 -262 -30 -750 10 -998 29 -180 102 -369 195 -507 182 -269 458 -442
810 -506 256 -46 818 -46 1092 0 359 62 645 241 825 517 166 255 223 513 223
1010 0 636 -90 945 -358 1226 -188 197 -423 311 -737 358 -161 24 -627 35
-822 20z m-59 -804 c104 -65 207 -109 335 -143 84 -23 118 -26 266 -27 94 -1
196 2 229 7 53 7 58 6 51 -10 -57 -143 -81 -427 -51 -598 50 -286 206 -552
431 -734 24 -20 32 -31 20 -27 -53 14 -205 26 -347 26 -193 0 -352 -20 -527
-66 l-134 -35 -36 42 c-204 236 -342 526 -392 822 -27 158 -23 449 9 592 21
95 51 205 57 205 1 0 42 -24 89 -54z m-432 -156 c44 -12 109 -24 145 -27 l64
-6 -6 -81 c-4 -45 -8 -87 -11 -94 -3 -9 -22 -1 -62 27 -32 23 -62 41 -66 41
-15 0 1 -240 24 -350 38 -187 121 -398 215 -545 79 -124 67 -123 -39 5 -218
262 -341 561 -376 918 -12 121 -9 148 16 138 9 -3 52 -15 96 -26z"/>
<path d="M1371 2221 c-30 -128 -40 -218 -41 -361 0 -316 94 -611 276 -867 25
-35 49 -63 54 -63 4 0 50 11 102 25 172 45 279 58 494 59 l200 1 -40 50 c-23
28 -52 66 -66 84 l-25 33 -77 -11 c-154 -21 -345 -24 -505 -7 -84 9 -158 19
-166 22 -16 6 -41 54 -33 62 3 3 61 -3 128 -12 137 -18 387 -21 517 -6 46 5
86 12 89 15 3 2 -6 25 -19 51 l-24 45 -50 -5 c-137 -15 -222 -17 -350 -7 -124
9 -289 32 -337 47 -15 4 -43 62 -34 71 2 2 30 -3 62 -11 124 -32 302 -48 486
-44 98 2 181 7 184 11 4 4 1 28 -7 54 l-14 46 -197 -2 c-163 -2 -218 1 -325
19 -70 12 -150 29 -178 38 -45 15 -50 20 -53 50 -3 29 -1 33 15 28 187 -58
506 -92 667 -70 46 7 47 7 41 38 -15 71 -1 66 -171 66 -197 0 -365 24 -526 76
-43 14 -48 19 -48 45 0 16 5 29 11 29 5 0 49 -11 97 -24 48 -13 110 -29 138
-35 94 -19 317 -34 397 -27 l78 8 -3 49 -3 50 -190 4 c-200 4 -329 25 -467 76
-51 19 -58 25 -58 49 0 14 3 29 6 32 3 3 42 -7 87 -22 45 -16 117 -36 160 -44
106 -22 307 -36 392 -28 l70 7 3 51 3 51 -99 -5 c-164 -8 -387 26 -533 81 -60
23 -64 26 -61 53 2 16 4 30 6 31 1 1 40 -11 86 -27 144 -50 213 -61 411 -67
211 -6 200 -10 214 75 l7 43 -29 -8 c-15 -4 -91 -7 -168 -7 -166 1 -301 26
-434 80 -137 57 -126 60 -150 -45z"/>
</g>
</svg>
